<svg width="14" height="14" viewBox="0 0 14 14" fill="none" xmlns="http://www.w3.org/2000/svg">
<path d="M13.1891 5.41802L9.2219 4.84146L7.44847 1.24615C7.40003 1.14771 7.32034 1.06802 7.2219 1.01959C6.97503 0.897711 6.67503 0.999273 6.55159 1.24615L4.77815 4.84146L0.810967 5.41802C0.701592 5.43365 0.601592 5.48521 0.525029 5.56334C0.432469 5.65847 0.381465 5.78646 0.383223 5.91918C0.384981 6.0519 0.439357 6.1785 0.534404 6.27115L3.40472 9.06959L2.72659 13.0211C2.71069 13.1131 2.72086 13.2076 2.75595 13.294C2.79105 13.3805 2.84966 13.4554 2.92514 13.5102C3.00062 13.565 3.08995 13.5976 3.183 13.6042C3.27605 13.6108 3.3691 13.5913 3.45159 13.5477L7.00003 11.6821L10.5485 13.5477C10.6453 13.5993 10.7578 13.6165 10.8657 13.5977C11.1375 13.5508 11.3203 13.293 11.2735 13.0211L10.5953 9.06959L13.4657 6.27115C13.5438 6.19459 13.5953 6.09459 13.611 5.98521C13.6532 5.71177 13.4625 5.45865 13.1891 5.41802Z" fill="#FEA250"/>
</svg>
